Patient4_TMGait_0pt4_01_left_01_EMG.mot
version=1
nRows=37
nColumns=33
inDegrees=no
endheader
time	1LAddLong	2LGlutMax	3LGlutMed	4LIliopsoas	5LSemiMemb	6LBicFemLong	7LRecFem	8LVastMed	9LVastLat	10LGasMed	11LTibAnt	12lTibPost	13LPeroneusLong	14LSol	15LExtDigLong	16LFlexDigLong	17RAddLong	18RGlutMax	19RGlutMed	20RIliopsoas	21RSemiMemb	22RBicFemLong	23RRecFem	24RVastMed	25RVastLat	26RGasMed	27RTibAnt	28RTibPost	29RPeroneusLong	30RSol	31RExtDigLong	32RFlexDigLong
0.562	-0.046997	-0.37674	-0.10803	0.03067	-0.058441	0.27344	0.21225	0.000458	-0.22629	0.030212	-0.11398	0.001373	-0.030975	-0.22659	0.25971	-0.007172	0.050659	0.16037	0.14084	-0.007935	-0.031891	0.62195	0.1889	-0.056763	0.050201	0.005188	0.05249	-0.008698	-0.18601	-0.021667	-0.005493	-0.019531
0.563	-0.045624	-0.28488	-0.080414	0.018463	-0.001678	0.13275	0.2298	0.01709	-0.42923	0.033112	-0.082703	0.003967	-0.10803	-0.21515	0.1709	-0.001221	0.062408	0.17685	0.081482	0.02533	-0.028839	0.59097	0.15106	-0.076447	0.046692	0.01297	0.099335	-0.003204	-0.17136	-0.017548	0	-0.019379
0.564	-0.022125	-0.2478	-0.060883	0.004883	0.006409	-0.37277	0.15015	0.014038	-0.53085	0.000305	-0.1059	-0.002289	-0.053406	-0.019226	0.035095	-0.007629	0.010071	0.13214	0.04425	0.075531	-0.03479	0.56259	0.13046	-0.099335	0.040894	0.024872	-0.001068	-0.007172	-0.043793	0.010834	-0.004578	-0.016174
0.565	-0.004425	-0.18433	-0.071564	0.00351	0.007477	-0.49789	0.10269	0.003967	-0.54718	-0.016022	-0.12024	0.005188	-0.016937	0.080414	-0.10956	0.011292	-0.003357	0.11566	-0.038605	0.20355	-0.025787	0.54077	0.14969	-0.068207	0.061035	0.00473	-0.009918	-0.005188	-0.06134	-0.03067	-0.004883	-0.016632
0.566	0.009766	-0.19241	-0.12894	0.000916	0.034943	-0.17746	0.10284	-0.005188	-0.39246	0.019226	0.012512	0.014954	-0.071869	0.044708	-0.13657	0.010376	0.016937	0.12116	-0.12985	0.19348	-0.04303	0.54001	0.12207	-0.053253	0.051117	0.008392	0.029449	-0.008698	0.00061	-0.020905	-0.005646	-0.017242
0.567	-0.000305	-0.1973	-0.13168	0.000153	0.02533	0.099487	0.10666	-0.006256	-0.35446	0.003204	0.056305	0.007629	-0.033722	0.013123	-0.058441	0.00824	-0.01236	0.10147	-0.1091	0.091095	-0.032959	0.41367	0.12421	-0.11643	0.029907	0.002747	0.0383	-0.009003	0.15289	0.020142	-0.003967	-0.006256
0.568	-0.00885	-0.19638	-0.090027	-0.00061	-0.012665	0.080872	0.087433	0.001678	-0.34286	-0.033722	-0.032806	0.013275	0.063019	0.010529	-0.013123	0.019073	-0.011597	0.055084	-0.056458	0.004425	-0.028076	0.40253	0.13931	-0.16525	0.027771	-0.010376	0.07431	-0.000305	0.23025	0.070496	-0.001221	-0.007935
0.569	-0.012512	-0.16861	-0.095062	0.029755	-0.057526	0.029297	0.042725	0.008545	-0.33234	-0.044708	-0.12665	-0.007782	0.05249	0.032043	0.26123	0.017395	0.006866	0.051727	-0.027313	-0.046692	-0.010681	0.43243	0.13199	-0.10757	0.041656	-0.02182	0.11093	-0.008392	0.25406	0.07309	-0.001831	-0.009155
0.57	-0.023651	-0.12589	-0.10849	0.019989	-0.079651	-0.069885	-0.014648	0.015717	-0.31555	-0.010681	-0.10956	0.028534	-0.054321	0.01709	0.49011	0.000763	-0.0177	0.10956	0.079346	-0.045013	-0.002441	0.40939	0.14557	-0.10269	0.022583	-0.015717	0.19409	-0.010376	0.1918	0.011749	-0.004272	-0.00473
0.571	-0.011292	-0.096893	-0.15869	-0.002441	-0.062714	-0.067139	-0.052795	0.010681	-0.25253	0.014648	-0.037689	-0.004578	-0.088196	0.056915	0.55801	0.00351	0.024719	0.12344	0.064392	-0.024567	-0.007324	0.36529	0.18158	-0.06897	0.007629	-0.015106	0.31448	-0.010376	0.10407	0.027008	-0.001984	-0.01709
0.572	-0.009918	-0.055542	-0.15152	-0.018311	0.013123	0.036316	-0.11078	0.013123	-0.16007	-0.003967	0.2121	0.003357	-0.11215	0.18097	0.62897	0.022278	0.019684	0.16861	-0.004425	-0.075531	0.018616	0.36118	0.20172	-0.069427	0.016632	-0.017242	0.2832	-0.010834	0.093079	-0.001068	-0.001831	-0.014801
0.573	-0.030823	-0.061798	-0.036011	-0.000763	-0.011292	0.076447	-0.17746	0.025024	-0.048065	-0.024872	0.37552	0.010834	-0.096741	0.18906	0.42633	0.010529	0.033417	0.40573	-0.16632	-0.11993	0.026703	0.29434	0.25116	-0.057678	-0.010529	-0.001373	-0.14038	-0.00824	0.042114	-0.000305	0.000458	-0.014954
0.574	-0.037537	-0.034027	0.14557	0.020599	-0.075226	0.065002	-0.11276	0.016632	0.09552	-0.00946	0.38895	0.032654	-0.12894	0.13657	-0.032806	0.001068	0.032043	0.57602	0.006104	-0.17288	0.029144	0.27496	0.21606	0.011139	-0.007324	0.001068	-0.31632	-0.008545	-0.20248	0.001831	-0.002136	-0.016174
0.575	-0.024109	-0.061646	0.045471	-0.005341	-0.087433	0.068359	-0.042419	0.00473	-0.068665	-0.059814	0.31097	0.017242	-0.060577	0.12085	-0.013885	0.014954	-0.007477	0.59479	0.11108	-0.2092	0.016174	0.28564	0.22293	0.013428	-0.016327	-0.001068	-0.42755	-0.008545	-0.088348	-0.040894	-0.007172	-0.019836
0.576	-0.021362	-0.097198	-0.007172	-0.002136	-0.071106	0.02182	0.017395	0.013428	-0.28534	-0.009918	0.25543	0.015717	-0.011292	0.041199	-0.33569	0.003662	0.003204	0.57938	0.043182	-0.11124	0.005493	0.23086	0.20554	0.047607	-0.036774	-0.00061	-0.9256	-0.009308	-0.028992	-0.075226	-0.004272	-0.015869
0.577	-0.024109	-0.062714	-0.001373	-0.009766	0.036163	-0.00351	-0.16434	0.01358	-0.34241	0.017395	-0.092621	0.019531	0.013733	0.016479	-0.72037	0.003204	0.041504	0.59418	0.025787	-0.069275	-0.012665	0.24231	0.15182	0.044403	-0.026703	0.001831	-0.94788	-0.01358	0.052643	-0.092926	-0.007782	-0.016327
0.578	-0.025024	-0.060272	0.049286	0.006256	0.060425	0.016785	-0.21103	0.017548	-0.32196	0.019379	-0.18555	0.02243	0.013885	0.010529	-0.36453	0.010986	-0.025482	0.5217	-0.010529	-0.045319	-0.052795	0.21744	0.17929	0.05722	-0.016327	-0.000153	0.038452	-0.005035	0.085449	-0.19028	-0.004272	-0.015259
0.579	-0.010834	-0.04425	0.041046	0.011749	0.032501	0.1033	-0.31754	0.037689	-0.25818	-0.046844	-0.1799	0.018311	0.11673	-0.02594	-0.45212	-0.005951	-0.042725	0.42557	-0.13931	-0.070496	-0.085754	0.19104	0.21133	0.054932	-0.011292	0.020294	0.74661	-0.009766	0.13153	-0.29053	-0.010071	-0.009308
0.58	-0.016327	-0.051117	0.09613	0.015564	-0.035858	0.072479	-0.42847	0.036163	-0.1799	-0.016479	0.054169	0.014954	0.046387	-0.084381	-0.39841	-0.008698	-0.068054	0.36316	-0.059662	-0.023041	-0.076904	0.14877	0.21545	0.027161	-0.019836	0.015411	1.4081	-0.00946	0.1973	-0.25589	-0.004578	-0.005035
0.581	-0.036926	-0.034485	-0.028229	0.004883	-0.057068	0	-0.31372	0.020142	-0.054321	0.04425	0.26093	0.017548	-0.097198	-0.12253	-0.10727	0.004578	-0.078125	0.271	-0.042877	0.11322	-0.024109	0.14435	0.23132	0.031738	-0.034943	0.002747	0.91293	-0.003052	0.11154	-0.1236	-0.013428	-0.00061
0.582	-0.04837	0.013885	-0.13123	0.013123	-0.060577	-0.023041	-0.16907	0.027161	0.040894	0.067749	0.088654	0.014038	-0.11917	-0.071869	0.021362	-0.002441	-0.044556	0.30533	-0.085754	0.24628	0.004425	0.11566	0.27771	0.001068	-0.018005	-0.007629	-0.45624	-0.009308	0.13153	-0.024414	-0.005035	-0.020447
0.583	-0.054932	0.032349	-0.044708	0.016785	0.046692	-0.027008	-0.040436	0.018768	0.050659	0.039673	-0.21042	0.021362	-0.080414	0.053253	0.28763	0.021057	-0.045929	0.24735	0.10346	0.18723	0.005035	0.07843	0.28885	0.000305	-0.018311	-0.001221	-0.43182	-0.004578	0.026093	0.036316	-0.005951	-0.011139
0.584	-0.047302	0.05127	0.30685	0.0177	0.019226	0.035095	-0.097351	0.025635	0.059814	0.025024	-0.24063	0.015564	-0.012512	0.097809	-0.15747	0.00824	-0.031891	0.22186	0.56961	0.052185	0.001526	0.063782	0.34775	0.019684	-0.03067	-0.00061	-0.37796	-0.00946	-0.041809	0.1001	-0.008545	-0.011292
0.585	-0.043182	0.010071	0.22186	0.003052	-0.031128	0.064545	-0.15869	0.018768	0.1973	-0.002594	-0.41412	0.018005	0.096588	0.090485	0.7782	0.00351	-0.041046	0.17853	0.22598	0.070496	0.024872	0.019379	0.33402	0.027161	-0.034332	0.005493	-0.25543	-0.01236	-0.024414	0.19226	-0.004425	-0.006561
0.586	-0.027466	0.000763	0.2063	-0.00412	-0.071716	0.18784	-0.15808	0.014191	0.26932	-0.046387	-0.30167	0.018616	0.15472	0.095215	0.032196	0.01358	-0.05722	0.14984	-0.1976	0.032043	0.039368	0.035248	0.33646	0.069122	-0.032959	-0.001831	-0.006409	-0.009308	-0.14816	0.11292	-0.008545	-0.01358
0.587	-0.012665	-0.027771	0.15701	-0.004272	-0.00412	0.26001	-0.090485	0.043488	0.1564	-0.046539	0.090332	0.015259	0.083466	0.1236	-0.14847	0.025635	-0.046082	0.054321	-0.19363	0.000763	0.029144	0.032959	0.34714	0.068054	-0.036926	0.002747	0.059357	-0.005035	-0.10696	-0.002136	-0.004425	-0.018616
0.588	-0.006866	-0.002747	0.12146	0.002289	0.008087	0.20538	-0.13062	0.03006	0.000305	-0.039978	0.080109	0.0177	-0.038147	0.14999	-0.11765	0.024872	-0.023193	0.023346	-0.19379	-0.050659	0.070496	0.035095	0.33112	0.050964	-0.025635	0.003204	0.001831	-0.008392	0.000458	-0.048828	-0.003815	-0.016327
0.589	-0.003204	-0.010376	0.045624	0.013123	0.041046	0.16281	-0.20096	0.010529	-0.034943	-0.050659	-0.15564	0.010071	0.045013	-0.001678	-0.63751	0.005341	0.00473	-0.034027	-0.22995	-0.031891	0.10925	0.060577	0.34286	0.058594	-0.032196	0.005646	-0.027313	-0.001984	0.11124	-0.033112	-0.005188	-0.012665
0.59	-0.014801	0.021057	0.12039	0.004272	0.0354	0.006561	-0.26749	-0.006561	-0.01358	0.009308	-0.29877	0.010071	0.059509	-0.021973	-0.75775	0.00946	0.004272	0.03952	-0.22018	-0.015259	0.10086	0.12405	0.3035	0.10132	-0.045166	0.00351	0.18082	0.006256	0.13641	0.035095	-0.004578	-0.009766
0.591	-0.014954	0.017395	0.1471	0.011292	0.001068	-0.1149	-0.35385	0.015106	0.19226	0.002747	-0.23438	0.008087	-0.011902	-0.092926	-0.009308	0.020447	0.030365	-0.041046	-0.18936	0.027466	0.097351	0.10178	0.30792	0.11002	-0.046082	0.001221	0.37949	-0.009003	-0.054932	0.056763	-0.005798	-0.021057
0.592	-0.005188	0.054779	0.22003	0.002899	-0.009918	-0.002136	-0.4538	0.02243	0.21973	0.055695	-0.031128	0.013428	-0.10574	-0.056	0.098114	0.00824	0.04715	-0.061646	-0.15091	0.065308	0.094299	0.035248	0.29846	0.058441	-0.044403	-0.001526	0.32669	-0.010834	-0.11108	0.072174	-0.004883	-0.012207
0.593	-0.010986	0.056915	0.19424	-0.008698	-0.010834	0.031586	-0.3717	-0.016479	0.24353	0.041656	0.03891	0.010986	-0.12009	0.068665	-0.24017	0.001984	0.087128	-0.005188	-0.12161	-0.027466	0.067902	-0.020142	0.31235	0.041504	-0.068512	0.006409	0.3331	-0.001678	-0.016937	0.11261	-0.006104	-0.013733
0.594	-0.012512	0.087891	0.054474	0.005341	-0.005798	0.016632	-0.34378	-0.006714	0.23621	0.001221	0.15717	0.011902	-0.015717	-0.010986	-0.005493	0.005493	0.10422	-0.08606	-0.23285	-0.062714	0.046234	-0.056915	0.3096	0.059052	-0.065308	0.005646	-0.10544	-0.007172	0.1059	0.13565	-0.010071	-0.009766
0.595	-0.001068	0.10284	0.014648	0.006866	-0.028534	-0.042267	-0.36606	0.002289	0.13412	0.029297	0.20859	0.009766	0.046844	0.043488	0.4924	0.007629	0.071564	-0.13001	-0.24078	-0.018005	0.046082	-0.071259	0.28183	0.025024	-0.077515	0.015411	-0.36301	-0.009003	0.14114	-0.023804	-0.00473	-0.004578
0.596	0.00885	0.043182	-0.066376	-0.005798	-0.026093	0.020752	-0.41992	0.005646	-0.065613	-0.015411	0.36392	0.006561	-0.024109	0.16007	0.78445	0.020447	0.027313	-0.13016	-0.1326	0.06958	0.022278	-0.081177	0.29907	-0.024109	-0.095825	0.019379	-0.25665	-0.00061	0.090637	-0.027771	-0.005035	-0.011902
0.597	0.006409	-0.065002	-0.31296	-0.000305	-0.023956	0.19104	-0.38132	-0.006256	-0.37262	-0.06546	0.13092	0.006866	0.012054	0.20935	0.42221	0.011749	-0.024872	-0.19684	-0.090942	0.10574	-0.001068	-0.080414	0.26504	-0.019989	-0.074615	0.012817	-0.19852	-0.007324	0.089111	0.077362	-0.010834	-0.012512
0.598	-0.010223	-0.099792	-0.31967	0.019379	-0.033112	0.41489	-0.31357	-0.029755	-0.29083	0.005188	-0.027466	0.003204	0.003357	0.13977	0.16769	0.001068	-0.027008	-0.24185	-0.018921	0.097351	-0.000916	-0.10407	0.24567	0.006866	-0.075989	-0.009003	-0.06134	-0.002441	0.042572	0.099335	-0.003357	-0.01709
